<svg width="560" height="226" viewBox="0 0 560 226" fill="none" xmlns="http://www.w3.org/2000/svg">
<path d="M57.25 2.375V4.9375C48.5625 5.3125 46.875 6.625 46.875 15.9375V62.8125C46.875 73.4375 46.75 87.625 44.6875 96.1875C41.875 108 32.3125 117.062 17.6875 117.062C12.9375 117.062 9.25 115.938 6.9375 114.75C2.75 112.562 0.8125 109.5 0.8125 105.938C0.8125 101.938 3.625 99.125 7.5625 99.125C11.5625 99.125 14.625 101.688 14.625 106.062C14.625 109.75 12.4375 111.938 9.25 112.562C10.9375 114.25 15.25 114.625 17.4375 114.625C24.875 114.625 30.5 110.562 32.8125 103.75C34.5625 98.375 35 92.125 35 74.4375V15.9375C35 6.625 33.3125 5.3125 24.625 4.9375V2.375C28.1875 2.625 34.3125 2.75 41 2.75C46.875 2.75 53.25 2.625 57.25 2.375ZM108.25 0.5625C132.562 0.5625 148.812 17.625 148.812 46.9375C148.812 75.5625 131.938 94.8125 108.125 94.8125C83.8125 94.8125 67.5625 77.75 67.5625 48.4375C67.5625 19.8125 84.4375 0.5625 108.25 0.5625ZM107.75 2.875C91.0625 2.875 80.3125 21.4375 80.3125 47.9375C80.3125 75.1875 92.875 92.5 108.625 92.5C125.25 92.5 136 73.9375 136 47.4375C136 20.1875 123.5 2.875 107.75 2.875ZM237.188 85.1875L239.125 86.625C235.5 91.875 232.312 94.8125 225.438 94.8125C219 94.8125 214.125 91.875 211.688 80.9375L208.875 68.1875C206.438 57.3125 204.562 50 194.438 50H182.25V79.4375C182.25 88.75 183.938 90.0625 192.625 90.4375V93C188.688 92.75 182.25 92.625 176.375 92.625C169.75 92.625 163.562 92.75 160 93V90.4375C168.688 90.0625 170.375 88.75 170.375 79.4375V15.9375C170.375 6.625 168.688 5.3125 160 4.9375V2.375C163.562 2.625 170 2.75 175.625 2.75C183.688 2.75 191.875 2.5 194.938 2.5C215.562 2.5 225.812 12.25 225.812 24.75C225.812 33.625 220.25 46.375 200.938 49.375L202.5 49.625C213.875 51.5 218 55.875 220.438 66.5L223.625 79.5625C225.188 87 226.625 90.0625 230.188 90.0625C233.312 90.0625 234.812 88.1875 237.188 85.1875ZM191.75 4.9375C183.938 4.9375 182.25 7.125 182.25 15.9375V47.4375H190.875C209 47.4375 213 37.9375 213 26.1875C213 12.75 207.25 4.9375 191.75 4.9375ZM285.75 0.5625C296.875 0.5625 302.75 4.5625 308.812 8.875C309.812 9.6875 310.562 10.1875 311.375 10.1875C313 10.1875 314.062 7.75 314.562 2.375H317.5C317.125 8.625 317 16.9375 317 31.8125H314.062C312.875 24.625 311.625 17.75 307.625 12.875C302.625 6.625 294.062 2.875 285.5 2.875C268.5 2.875 257.312 20.3125 257.312 47.8125C257.312 78.5625 266.938 92.25 287.812 92.25C293.938 92.25 298.562 90.0625 301.125 88.25C304.312 86.0625 304.812 84.4375 304.812 81.25V68.9375C304.812 58.5625 302.625 57.0625 291.875 56.625V54.0625C296.375 54.375 304.188 54.5 309.938 54.5C315.562 54.5 320.188 54.375 323.25 54.0625V56.625C317.625 57.0625 316.75 58.1875 316.75 67.625V93H314.188C314.062 90.0625 312.875 85.6875 310.688 85.6875C309.688 85.6875 309.062 85.9375 306.5 87.875C300.875 92.125 294.812 94.8125 286.5 94.8125C260 94.8125 244.562 77.75 244.562 49.25C244.562 19.375 261.938 0.5625 285.75 0.5625ZM398.562 76.625C398.562 79.8125 398.812 86.5 399.438 93C390.75 92.625 378.688 92.625 370.125 92.625C362.438 92.625 345.562 92.625 333 93V90.4375C341.688 90.0625 343.375 88.75 343.375 79.4375V15.9375C343.375 6.625 341.688 5.3125 333 4.9375V2.375C345.562 2.75 362.438 2.75 370.125 2.75C377.938 2.75 388.938 2.75 396.875 2.375C396.25 8.375 396 14.5625 396 17.5C396 20.5625 396.125 23.5 396.375 25.4375H393.438C391.75 10.3125 389.812 5.3125 376.25 5.3125H365.625C356.938 5.3125 355.25 6.625 355.25 15.9375V46.125H363.75C374.875 46.125 374.625 35.375 375.625 29.25H378.562C378.188 34.6875 378.125 38.375 378.125 41.3125C378.125 43.6875 378.188 45.5625 378.188 47.4375C378.188 51.625 378.312 55.875 378.938 65.625H376C375 57.4375 374.875 48.6875 363.75 48.6875H355.25V79.4375C355.25 88.75 356.938 90.0625 365.625 90.0625H375C391 90.0625 394.188 84.3125 396 67.375H398.938C398.688 69.6875 398.562 73.0625 398.562 76.625ZM523.375 0.5625C533.875 0.5625 542.062 7 542.062 17.875C542.062 26.5625 536.688 32.4375 529.938 35.8125C525.875 37.75 518.375 40.1875 510.938 42.5C520.938 46.6875 524.938 54.9375 524.938 64.1875C524.938 79.6875 510.562 94.8125 485.875 94.8125C463.75 94.8125 444.438 82.625 444.438 62.9375C444.438 44.375 461.562 37.3125 468.062 35.625C459.5 31.9375 455.188 25.4375 455.188 19.125C455.188 10.8125 462.562 3.125 476.812 3.125C483.312 3.125 487.438 4.8125 490.125 7C493.438 9.6875 494.875 13.125 494.875 15.8125C494.875 20.0625 491.25 22.625 487.688 22.625C484.25 22.625 481 20.3125 481 16.1875C481 12.5 483.812 9.5625 487.812 9.1875C487.062 7 483.312 5.0625 478.062 5.0625C469.375 5.0625 463.25 10.4375 463.25 20.3125C463.25 25.0625 464.625 30.125 469.75 34.875C472.688 34.375 476.125 34.125 477.688 34.125C480.75 34.125 482.812 35.125 482.812 37.0625C482.812 38.625 481.375 39.5 479.25 39.5C476 39.5 471.938 37.5625 469.875 36.6875C460 39.625 453.25 45.75 453.25 57.6875C453.25 75.3125 468.375 85.3125 487.562 85.3125C505.625 85.3125 521.188 76.5 521.188 61.875C521.188 57.3125 519.625 47.875 508.312 43.3125C502.5 45.125 497 46.875 493.562 48.1875C487.188 50.625 482.312 53.8125 482.312 59.3125C482.312 66 489.188 69.5625 494.062 69.5625C496.375 69.5625 501.25 68.6875 501.75 66.75C499.062 66.25 495.75 64.5625 495.75 60.25C495.75 56.125 498.812 53.5625 502.75 53.5625C506.875 53.5625 509.562 56.375 509.562 60.5C509.562 67.8125 501.125 71.5 494.312 71.5C487.062 71.5 478.438 67.125 478.438 56.5C478.438 47.6875 484.5 41.8125 496.125 37.8125C503.812 35.25 517.875 32.0625 527.375 27.75C535.938 23.75 538.375 19.8125 538.375 15.4375C538.375 8.125 531.438 2.5 523.5 2.5C521.438 2.5 520.062 2.875 519.688 3.625C522 4.8125 523.25 7.375 523.25 9.5625C523.25 13.125 519.938 15.8125 516.062 15.8125C512.75 15.8125 509.312 13.75 509.312 9.4375C509.312 2.75 517.25 0.5625 523.375 0.5625ZM67.5 131.562C78.75 131.562 85.4375 135.562 91.0625 139.875C92 140.625 92.8125 141 93.5625 141C95.3125 141 96.375 138.625 96.8125 133.375H99.75C99.375 139.625 99.25 147.938 99.25 162.812H96.3125C94.5 151.938 93.5 148.5 89.875 143.875C84.5 136.938 76.0625 133.875 67.25 133.875C50.5625 133.875 39.5625 151.188 39.5625 178.938C39.5625 207.5 52 223.25 68.5 223.25C76.1875 223.25 85.5625 220.438 90.375 213.5C94.125 208.5 95 203.625 96.3125 193.25H99.25C99.25 208.75 99.375 217.5 99.75 224H96.8125C96.375 218.75 95.5 216.438 93.6875 216.438C93 216.438 92.125 216.812 91.0625 217.5C84.75 221.938 78.375 225.812 67.375 225.812C43.0625 225.812 26.8125 208.75 26.8125 179.438C26.8125 150.812 43.6875 131.562 67.5 131.562ZM179.062 207.625C179.062 210.812 179.312 217.5 179.938 224C171.25 223.625 159.188 223.625 150.625 223.625C142.938 223.625 126.062 223.625 113.5 224V221.438C122.188 221.062 123.875 219.75 123.875 210.438V146.938C123.875 137.625 122.188 136.312 113.5 135.938V133.375C126.062 133.75 142.938 133.75 150.625 133.75C158.438 133.75 169.438 133.75 177.375 133.375C176.75 139.375 176.5 145.562 176.5 148.5C176.5 151.562 176.625 154.5 176.875 156.438H173.938C172.25 141.312 170.312 136.312 156.75 136.312H146.125C137.438 136.312 135.75 137.625 135.75 146.938V177.125H144.25C155.375 177.125 155.125 166.375 156.125 160.25H159.062C158.688 165.688 158.625 169.375 158.625 172.312C158.625 174.688 158.688 176.562 158.688 178.438C158.688 182.625 158.812 186.875 159.438 196.625H156.5C155.5 188.438 155.375 179.688 144.25 179.688H135.75V210.438C135.75 219.75 137.438 221.062 146.125 221.062H155.5C171.5 221.062 174.688 215.312 176.5 198.375H179.438C179.188 200.688 179.062 204.062 179.062 207.625ZM224.125 133.375V135.938C215.438 136.312 213.75 137.625 213.75 146.938V210.438C213.75 219.75 215.438 221.062 224.125 221.062H233.5C249.5 221.062 252.688 214.938 254.5 197.125H257.438C257.188 199.812 257.062 203.5 257.062 207.625C257.062 210.812 257.312 217.5 257.938 224C249.25 223.625 237.188 223.625 228.625 223.625C220.938 223.625 204.062 223.625 191.5 224V221.438C200.188 221.062 201.875 219.75 201.875 210.438V146.938C201.875 137.625 200.188 136.312 191.5 135.938V133.375C195.062 133.625 201.25 133.75 207.875 133.75C213.75 133.75 220.188 133.625 224.125 133.375ZM332.312 207.625C332.312 210.812 332.562 217.5 333.188 224C324.5 223.625 312.438 223.625 303.875 223.625C296.188 223.625 279.312 223.625 266.75 224V221.438C275.438 221.062 277.125 219.75 277.125 210.438V146.938C277.125 137.625 275.438 136.312 266.75 135.938V133.375C279.312 133.75 296.188 133.75 303.875 133.75C311.688 133.75 322.688 133.75 330.625 133.375C330 139.375 329.75 145.562 329.75 148.5C329.75 151.562 329.875 154.5 330.125 156.438H327.188C325.5 141.312 323.562 136.312 310 136.312H299.375C290.688 136.312 289 137.625 289 146.938V177.125H297.5C308.625 177.125 308.375 166.375 309.375 160.25H312.312C311.938 165.688 311.875 169.375 311.875 172.312C311.875 174.688 311.938 176.562 311.938 178.438C311.938 182.625 312.062 186.875 312.688 196.625H309.75C308.75 188.438 308.625 179.688 297.5 179.688H289V210.438C289 219.75 290.688 221.062 299.375 221.062H308.75C324.75 221.062 327.938 215.312 329.75 198.375H332.688C332.438 200.688 332.312 204.062 332.312 207.625ZM372.125 131.938C380.562 131.938 384.312 134.375 387.75 136.688C389.812 138 390.938 138.5 392.125 138.5C393.75 138.5 394.438 136.562 394.938 132.875H397.875C397.5 137.375 397.25 142.875 397.25 159H394.312C393.375 146.812 387.5 134.375 373.312 134.375C364.188 134.375 357.688 140.438 357.688 149.25C357.688 160.875 367.688 165.5 379.188 172.688C392.5 181 402.25 187.75 402.25 201.5C402.25 217.75 389.938 225.812 375.062 225.812C366 225.812 361.25 223.375 357.562 221.062C355.5 219.75 354.25 219.25 353.188 219.25C351.562 219.25 350.875 221.188 350.375 224.875H347.438C347.812 219.625 347.938 212.25 347.938 194.188H350.875C351.938 209.688 357.812 223.25 374.188 223.25C382.5 223.25 390.812 218.25 390.812 206.188C390.812 195.812 382.75 189.938 370.875 182.812C358.688 175.5 348.062 168.562 348.062 154.125C348.062 139 359.5 131.938 372.125 131.938ZM484.25 133.375C483.625 139.875 483.375 146.562 483.375 149.75C483.375 153.875 483.5 157.562 483.75 160.25H480.812C479 142.438 477.125 136.312 461.125 136.312H454.188V209.125C454.188 219.5 456.375 221.062 467.125 221.438V224C462.625 223.75 455.25 223.625 448.312 223.625C440.625 223.625 433.438 223.75 429.375 224V221.438C440.125 221.062 442.312 219.5 442.312 209.125V136.312H435.375C419.375 136.312 417.438 142.438 415.688 160.25H412.75C413 157.562 413.125 153.875 413.125 149.75C413.125 146.562 412.875 139.875 412.188 133.375C422.812 133.75 437.812 133.75 448.312 133.75C458.812 133.75 473.625 133.75 484.25 133.375ZM558.938 207.625C558.938 210.812 559.188 217.5 559.812 224C551.125 223.625 539.062 223.625 530.5 223.625C522.812 223.625 505.938 223.625 493.375 224V221.438C502.062 221.062 503.75 219.75 503.75 210.438V146.938C503.75 137.625 502.062 136.312 493.375 135.938V133.375C505.938 133.75 522.812 133.75 530.5 133.75C538.312 133.75 549.312 133.75 557.25 133.375C556.625 139.375 556.375 145.562 556.375 148.5C556.375 151.562 556.5 154.5 556.75 156.438H553.812C552.125 141.312 550.188 136.312 536.625 136.312H526C517.312 136.312 515.625 137.625 515.625 146.938V177.125H524.125C535.25 177.125 535 166.375 536 160.25H538.938C538.562 165.688 538.5 169.375 538.5 172.312C538.5 174.688 538.562 176.562 538.562 178.438C538.562 182.625 538.688 186.875 539.312 196.625H536.375C535.375 188.438 535.25 179.688 524.125 179.688H515.625V210.438C515.625 219.75 517.312 221.062 526 221.062H535.375C551.375 221.062 554.562 215.312 556.375 198.375H559.312C559.062 200.688 558.938 204.062 558.938 207.625Z" fill="#FAF7F3"/>
</svg>
