<svg width="332" height="36" viewBox="0 0 332 36" fill="none" xmlns="http://www.w3.org/2000/svg">
<path d="M17.0586 1.0957V1.85645C14.4795 1.96777 13.9785 2.35742 13.9785 5.12207V19.0381C13.9785 22.1924 13.9414 26.4043 13.3291 28.9463C12.4941 32.4531 9.65527 35.1436 5.31348 35.1436C3.90332 35.1436 2.80859 34.8096 2.12207 34.457C0.878906 33.8076 0.303711 32.8984 0.303711 31.8408C0.303711 30.6533 1.13867 29.8184 2.30762 29.8184C3.49512 29.8184 4.4043 30.5791 4.4043 31.8779C4.4043 32.9727 3.75488 33.6221 2.80859 33.8076C3.30957 34.3086 4.58984 34.4199 5.23926 34.4199C7.44727 34.4199 9.11719 33.2139 9.80371 31.1914C10.3232 29.5957 10.4531 27.7402 10.4531 22.4893V5.12207C10.4531 2.35742 9.95215 1.96777 7.37305 1.85645V1.0957C8.43066 1.16992 10.249 1.20703 12.2344 1.20703C13.9785 1.20703 15.8711 1.16992 17.0586 1.0957ZM32.1992 0.557617C39.417 0.557617 44.2412 5.62305 44.2412 14.3252C44.2412 22.8232 39.2314 28.5381 32.1621 28.5381C24.9443 28.5381 20.1201 23.4727 20.1201 14.7705C20.1201 6.27246 25.1299 0.557617 32.1992 0.557617ZM32.0508 1.24414C27.0967 1.24414 23.9053 6.75488 23.9053 14.6221C23.9053 22.7119 27.6348 27.8516 32.3105 27.8516C37.2461 27.8516 40.4375 22.3408 40.4375 14.4736C40.4375 6.38379 36.7266 1.24414 32.0508 1.24414ZM70.4775 25.6807L71.0527 26.1074C69.9766 27.666 69.0303 28.5381 66.9893 28.5381C65.0781 28.5381 63.6309 27.666 62.9072 24.4189L62.0723 20.6338C61.3486 17.4053 60.792 15.2344 57.7861 15.2344H54.168V23.9736C54.168 26.7383 54.6689 27.1279 57.248 27.2393V28C56.0791 27.9258 54.168 27.8887 52.4238 27.8887C50.457 27.8887 48.6201 27.9258 47.5625 28V27.2393C50.1416 27.1279 50.6426 26.7383 50.6426 23.9736V5.12207C50.6426 2.35742 50.1416 1.96777 47.5625 1.85645V1.0957C48.6201 1.16992 50.5312 1.20703 52.2012 1.20703C54.5947 1.20703 57.0254 1.13281 57.9346 1.13281C64.0576 1.13281 67.1006 4.02734 67.1006 7.73828C67.1006 10.373 65.4492 14.1582 59.7158 15.0488L60.1797 15.123C63.5566 15.6797 64.7812 16.9785 65.5049 20.1328L66.4512 24.0107C66.915 26.2188 67.3418 27.1279 68.3994 27.1279C69.3271 27.1279 69.7725 26.5713 70.4775 25.6807ZM56.9883 1.85645C54.6689 1.85645 54.168 2.50586 54.168 5.12207V14.4736H56.7285C62.1094 14.4736 63.2969 11.6533 63.2969 8.16504C63.2969 4.17578 61.5898 1.85645 56.9883 1.85645ZM84.8945 0.557617C88.1973 0.557617 89.9414 1.74512 91.7412 3.02539C92.0381 3.2666 92.2607 3.41504 92.502 3.41504C92.9844 3.41504 93.2998 2.69141 93.4482 1.0957H94.3203C94.209 2.95117 94.1719 5.41895 94.1719 9.83496H93.2998C92.9473 7.70117 92.5762 5.66016 91.3887 4.21289C89.9043 2.35742 87.3623 1.24414 84.8203 1.24414C79.7734 1.24414 76.4521 6.4209 76.4521 14.585C76.4521 23.7139 79.3096 27.7773 85.5068 27.7773C87.3252 27.7773 88.6982 27.1279 89.459 26.5898C90.4053 25.9404 90.5537 25.458 90.5537 24.5117V20.8564C90.5537 17.7764 89.9043 17.3311 86.7129 17.2012V16.4404C88.0488 16.5332 90.3682 16.5703 92.0752 16.5703C93.7451 16.5703 95.1182 16.5332 96.0273 16.4404V17.2012C94.3574 17.3311 94.0977 17.665 94.0977 20.4668V28H93.3369C93.2998 27.1279 92.9473 25.8291 92.2979 25.8291C92.001 25.8291 91.8154 25.9033 91.0547 26.4785C89.3848 27.7402 87.585 28.5381 85.1172 28.5381C77.25 28.5381 72.667 23.4727 72.667 15.0117C72.667 6.14258 77.8252 0.557617 84.8945 0.557617ZM118.386 23.1387C118.386 24.085 118.46 26.0703 118.646 28C116.066 27.8887 112.485 27.8887 109.943 27.8887C107.661 27.8887 102.651 27.8887 98.9219 28V27.2393C101.501 27.1279 102.002 26.7383 102.002 23.9736V5.12207C102.002 2.35742 101.501 1.96777 98.9219 1.85645V1.0957C102.651 1.20703 107.661 1.20703 109.943 1.20703C112.263 1.20703 115.528 1.20703 117.885 1.0957C117.699 2.87695 117.625 4.71387 117.625 5.58594C117.625 6.49512 117.662 7.36719 117.736 7.94238H116.864C116.363 3.45215 115.788 1.96777 111.762 1.96777H108.607C106.028 1.96777 105.527 2.35742 105.527 5.12207V14.084H108.051C111.354 14.084 111.279 10.8926 111.576 9.07422H112.448C112.337 10.6885 112.318 11.7832 112.318 12.6553C112.318 13.3604 112.337 13.917 112.337 14.4736C112.337 15.7168 112.374 16.9785 112.56 19.873H111.688C111.391 17.4424 111.354 14.8447 108.051 14.8447H105.527V23.9736C105.527 26.7383 106.028 27.1279 108.607 27.1279H111.391C116.141 27.1279 117.087 25.4209 117.625 20.3926H118.497C118.423 21.0791 118.386 22.0811 118.386 23.1387ZM155.439 0.557617C158.557 0.557617 160.987 2.46875 160.987 5.69727C160.987 8.27637 159.392 10.0205 157.388 11.0225C156.182 11.5977 153.955 12.3213 151.747 13.0078C154.716 14.251 155.903 16.7002 155.903 19.4463C155.903 24.0479 151.636 28.5381 144.307 28.5381C137.738 28.5381 132.005 24.9199 132.005 19.0752C132.005 13.5645 137.089 11.4678 139.019 10.9668C136.477 9.87207 135.196 7.94238 135.196 6.06836C135.196 3.60059 137.386 1.31836 141.616 1.31836C143.546 1.31836 144.771 1.81934 145.568 2.46875C146.552 3.2666 146.979 4.28711 146.979 5.08496C146.979 6.34668 145.902 7.10742 144.845 7.10742C143.824 7.10742 142.859 6.4209 142.859 5.19629C142.859 4.10156 143.694 3.22949 144.882 3.11816C144.659 2.46875 143.546 1.89355 141.987 1.89355C139.408 1.89355 137.59 3.48926 137.59 6.4209C137.59 7.83105 137.998 9.33398 139.52 10.7441C140.392 10.5957 141.412 10.5215 141.876 10.5215C142.785 10.5215 143.397 10.8184 143.397 11.3936C143.397 11.8574 142.971 12.1172 142.34 12.1172C141.375 12.1172 140.169 11.542 139.557 11.2822C136.625 12.1543 134.621 13.9727 134.621 17.5166C134.621 22.749 139.111 25.7178 144.808 25.7178C150.17 25.7178 154.79 23.1016 154.79 18.7598C154.79 17.4053 154.326 14.6035 150.968 13.249C149.242 13.7871 147.609 14.3066 146.589 14.6963C144.696 15.4199 143.249 16.3662 143.249 17.999C143.249 19.9844 145.29 21.042 146.737 21.042C147.424 21.042 148.871 20.7822 149.02 20.207C148.222 20.0586 147.238 19.5576 147.238 18.2773C147.238 17.0527 148.147 16.292 149.316 16.292C150.541 16.292 151.339 17.127 151.339 18.3516C151.339 20.5225 148.834 21.6172 146.812 21.6172C144.659 21.6172 142.099 20.3184 142.099 17.1641C142.099 14.5479 143.898 12.8037 147.35 11.6162C149.632 10.8555 153.807 9.90918 156.627 8.62891C159.169 7.44141 159.893 6.27246 159.893 4.97363C159.893 2.80273 157.833 1.13281 155.477 1.13281C154.864 1.13281 154.456 1.24414 154.345 1.4668C155.031 1.81934 155.402 2.58008 155.402 3.22949C155.402 4.28711 154.419 5.08496 153.269 5.08496C152.285 5.08496 151.265 4.47266 151.265 3.19238C151.265 1.20703 153.621 0.557617 155.439 0.557617ZM185.312 0.557617C188.652 0.557617 190.638 1.74512 192.308 3.02539C192.586 3.24805 192.827 3.35938 193.05 3.35938C193.569 3.35938 193.885 2.6543 194.015 1.0957H194.887C194.775 2.95117 194.738 5.41895 194.738 9.83496H193.866C193.328 6.60645 193.031 5.58594 191.955 4.21289C190.359 2.15332 187.854 1.24414 185.238 1.24414C180.284 1.24414 177.019 6.38379 177.019 14.6221C177.019 23.1016 180.711 27.7773 185.609 27.7773C187.892 27.7773 190.675 26.9424 192.104 24.8828C193.217 23.3984 193.477 21.9512 193.866 18.8711H194.738C194.738 23.4727 194.775 26.0703 194.887 28H194.015C193.885 26.4414 193.625 25.7549 193.087 25.7549C192.883 25.7549 192.623 25.8662 192.308 26.0703C190.434 27.3877 188.541 28.5381 185.275 28.5381C178.058 28.5381 173.233 23.4727 173.233 14.7705C173.233 6.27246 178.243 0.557617 185.312 0.557617ZM218.433 23.1387C218.433 24.085 218.507 26.0703 218.692 28C216.113 27.8887 212.532 27.8887 209.99 27.8887C207.708 27.8887 202.698 27.8887 198.969 28V27.2393C201.548 27.1279 202.049 26.7383 202.049 23.9736V5.12207C202.049 2.35742 201.548 1.96777 198.969 1.85645V1.0957C202.698 1.20703 207.708 1.20703 209.99 1.20703C212.31 1.20703 215.575 1.20703 217.932 1.0957C217.746 2.87695 217.672 4.71387 217.672 5.58594C217.672 6.49512 217.709 7.36719 217.783 7.94238H216.911C216.41 3.45215 215.835 1.96777 211.809 1.96777H208.654C206.075 1.96777 205.574 2.35742 205.574 5.12207V14.084H208.098C211.4 14.084 211.326 10.8926 211.623 9.07422H212.495C212.384 10.6885 212.365 11.7832 212.365 12.6553C212.365 13.3604 212.384 13.917 212.384 14.4736C212.384 15.7168 212.421 16.9785 212.606 19.873H211.734C211.438 17.4424 211.4 14.8447 208.098 14.8447H205.574V23.9736C205.574 26.7383 206.075 27.1279 208.654 27.1279H211.438C216.188 27.1279 217.134 25.4209 217.672 20.3926H218.544C218.47 21.0791 218.433 22.0811 218.433 23.1387ZM231.811 1.0957V1.85645C229.231 1.96777 228.73 2.35742 228.73 5.12207V23.9736C228.73 26.7383 229.231 27.1279 231.811 27.1279H234.594C239.344 27.1279 240.29 25.3096 240.828 20.0215H241.7C241.626 20.8193 241.589 21.9141 241.589 23.1387C241.589 24.085 241.663 26.0703 241.849 28C239.27 27.8887 235.688 27.8887 233.146 27.8887C230.864 27.8887 225.854 27.8887 222.125 28V27.2393C224.704 27.1279 225.205 26.7383 225.205 23.9736V5.12207C225.205 2.35742 224.704 1.96777 222.125 1.85645V1.0957C223.183 1.16992 225.02 1.20703 226.986 1.20703C228.73 1.20703 230.642 1.16992 231.811 1.0957ZM263.929 23.1387C263.929 24.085 264.003 26.0703 264.188 28C261.609 27.8887 258.028 27.8887 255.486 27.8887C253.204 27.8887 248.194 27.8887 244.465 28V27.2393C247.044 27.1279 247.545 26.7383 247.545 23.9736V5.12207C247.545 2.35742 247.044 1.96777 244.465 1.85645V1.0957C248.194 1.20703 253.204 1.20703 255.486 1.20703C257.806 1.20703 261.071 1.20703 263.428 1.0957C263.242 2.87695 263.168 4.71387 263.168 5.58594C263.168 6.49512 263.205 7.36719 263.279 7.94238H262.407C261.906 3.45215 261.331 1.96777 257.305 1.96777H254.15C251.571 1.96777 251.07 2.35742 251.07 5.12207V14.084H253.594C256.896 14.084 256.822 10.8926 257.119 9.07422H257.991C257.88 10.6885 257.861 11.7832 257.861 12.6553C257.861 13.3604 257.88 13.917 257.88 14.4736C257.88 15.7168 257.917 16.9785 258.103 19.873H257.23C256.934 17.4424 256.896 14.8447 253.594 14.8447H251.07V23.9736C251.07 26.7383 251.571 27.1279 254.15 27.1279H256.934C261.684 27.1279 262.63 25.4209 263.168 20.3926H264.04C263.966 21.0791 263.929 22.0811 263.929 23.1387ZM275.748 0.668945C278.253 0.668945 279.366 1.39258 280.387 2.0791C280.999 2.46875 281.333 2.61719 281.686 2.61719C282.168 2.61719 282.372 2.04199 282.521 0.947266H283.393C283.281 2.2832 283.207 3.91602 283.207 8.70312H282.335C282.057 5.08496 280.312 1.39258 276.101 1.39258C273.392 1.39258 271.462 3.19238 271.462 5.80859C271.462 9.25977 274.431 10.6328 277.845 12.7666C281.797 15.2344 284.691 17.2383 284.691 21.3203C284.691 26.1445 281.036 28.5381 276.62 28.5381C273.93 28.5381 272.52 27.8145 271.425 27.1279C270.812 26.7383 270.441 26.5898 270.126 26.5898C269.644 26.5898 269.439 27.165 269.291 28.2598H268.419C268.53 26.7012 268.567 24.5117 268.567 19.1494H269.439C269.755 23.751 271.499 27.7773 276.36 27.7773C278.828 27.7773 281.296 26.293 281.296 22.7119C281.296 19.6318 278.902 17.8877 275.377 15.7725C271.759 13.6016 268.604 11.542 268.604 7.25586C268.604 2.76562 272 0.668945 275.748 0.668945ZM309.035 1.0957C308.85 3.02539 308.775 5.01074 308.775 5.95703C308.775 7.18164 308.812 8.27637 308.887 9.07422H308.015C307.477 3.78613 306.92 1.96777 302.17 1.96777H300.11V23.584C300.11 26.6641 300.76 27.1279 303.951 27.2393V28C302.615 27.9258 300.426 27.8887 298.366 27.8887C296.084 27.8887 293.95 27.9258 292.744 28V27.2393C295.936 27.1279 296.585 26.6641 296.585 23.584V1.96777H294.525C289.775 1.96777 289.2 3.78613 288.681 9.07422H287.809C287.883 8.27637 287.92 7.18164 287.92 5.95703C287.92 5.01074 287.846 3.02539 287.642 1.0957C290.796 1.20703 295.249 1.20703 298.366 1.20703C301.483 1.20703 305.881 1.20703 309.035 1.0957ZM331.208 23.1387C331.208 24.085 331.282 26.0703 331.468 28C328.889 27.8887 325.308 27.8887 322.766 27.8887C320.483 27.8887 315.474 27.8887 311.744 28V27.2393C314.323 27.1279 314.824 26.7383 314.824 23.9736V5.12207C314.824 2.35742 314.323 1.96777 311.744 1.85645V1.0957C315.474 1.20703 320.483 1.20703 322.766 1.20703C325.085 1.20703 328.351 1.20703 330.707 1.0957C330.521 2.87695 330.447 4.71387 330.447 5.58594C330.447 6.49512 330.484 7.36719 330.559 7.94238H329.687C329.186 3.45215 328.61 1.96777 324.584 1.96777H321.43C318.851 1.96777 318.35 2.35742 318.35 5.12207V14.084H320.873C324.176 14.084 324.102 10.8926 324.398 9.07422H325.271C325.159 10.6885 325.141 11.7832 325.141 12.6553C325.141 13.3604 325.159 13.917 325.159 14.4736C325.159 15.7168 325.196 16.9785 325.382 19.873H324.51C324.213 17.4424 324.176 14.8447 320.873 14.8447H318.35V23.9736C318.35 26.7383 318.851 27.1279 321.43 27.1279H324.213C328.963 27.1279 329.909 25.4209 330.447 20.3926H331.319C331.245 21.0791 331.208 22.0811 331.208 23.1387Z" fill="#1E1E1E"/>
</svg>
